<svg xmlns="http://www.w3.org/2000/svg" width="70" height="87" viewBox="0 0 70 87"><g><g><path d="M70 23.515v51.728L46.667 86.999 23.333 75.243 0 86.999V35.272l9.575-4.826a27.241 27.241 0 0 1-.242-3.496C9.333 12.067 21.347 0 36.167 0c14.8 0 26.798 12.102 26.83 27.041zM22.165 73.48V53.484l-8.05-11.172h.002a26.896 26.896 0 0 1-4.174-9.7l-7.61 3.834v47.03l19.834-9.996zM45.5 60.06l-9.333 12.849L24.5 56.72v16.762l21 10.58zm10.603-18.576a24.808 24.808 0 0 0 4.564-14.384c0-13.663-10.97-24.745-24.5-24.745v-.012c-13.531 0-24.5 11.017-24.5 24.606a24.568 24.568 0 0 0 4.564 14.304l19.936 27.673zm11.562 32.586V27.041l-4.77 2.389a27.11 27.11 0 0 1-4.68 13.118l.002.003-10.384 14.298v27.213l19.834-9.993zM50.167 27.041c0 7.792-6.268 14.108-14 14.108s-14-6.316-14-14.108c0-7.793 6.268-14.11 14-14.11s14 6.318 14 14.11zm-2.314 0c0-6.503-5.232-11.775-11.686-11.775-6.455 0-11.687 5.272-11.687 11.775 0 6.502 5.232 11.776 11.687 11.776 6.453 0 11.685-5.274 11.686-11.776z"/><path class='box-img-color' d="M70 23.515v51.728L46.667 86.999 23.333 75.243 0 86.999V35.272l9.575-4.826a27.241 27.241 0 0 1-.242-3.496C9.333 12.067 21.347 0 36.167 0c14.8 0 26.798 12.102 26.83 27.041zM22.165 73.48V53.484l-8.05-11.172h.002a26.896 26.896 0 0 1-4.174-9.7l-7.61 3.834v47.03l19.834-9.996zM45.5 60.06l-9.333 12.849L24.5 56.72v16.762l21 10.58zm10.603-18.576a24.808 24.808 0 0 0 4.564-14.384c0-13.663-10.97-24.745-24.5-24.745v-.012c-13.531 0-24.5 11.017-24.5 24.606a24.568 24.568 0 0 0 4.564 14.304l19.936 27.673zm11.562 32.586V27.041l-4.77 2.389a27.11 27.11 0 0 1-4.68 13.118l.002.003-10.384 14.298v27.213l19.834-9.993zM50.167 27.041c0 7.792-6.268 14.108-14 14.108s-14-6.316-14-14.108c0-7.793 6.268-14.11 14-14.11s14 6.318 14 14.11zm-2.314 0c0-6.503-5.232-11.775-11.686-11.775-6.455 0-11.687 5.272-11.687 11.775 0 6.502 5.232 11.776 11.687 11.776 6.453 0 11.685-5.274 11.686-11.776z"/></g></g></svg>