<svg 
xmlns="http://www.w3.org/2000/svg" 
width="24" 
height="24" 
viewBox="0 0 24 24">
<g><g>
<path d="M23.761 23.766a.787.787 0 0 1-1.098 0l-6.217-6.12a10.152 10.152 0 0 1-6.353 2.219C4.52 19.865.001 15.418.001 9.932S4.519 0 10.093 0c5.575 0 10.093 4.446 10.094 9.932 0 2.565-.997 4.895-2.618 6.657l6.193 6.095a.758.758 0 0 1 0 1.082zM18.633 9.932c0-4.641-3.823-8.404-8.54-8.404-4.716 0-8.54 3.763-8.54 8.404 0 4.642 3.824 8.404 8.54 8.404 4.717 0 8.54-3.762 8.54-8.404z"/>
<path d="M23.761 23.766a.787.787 0 0 1-1.098 0l-6.217-6.12a10.152 10.152 0 0 1-6.353 2.219C4.52 19.865.001 15.418.001 9.932S4.519 0 10.093 0c5.575 0 10.093 4.446 10.094 9.932 0 2.565-.997 4.895-2.618 6.657l6.193 6.095a.758.758 0 0 1 0 1.082zM18.633 9.932c0-4.641-3.823-8.404-8.54-8.404-4.716 0-8.54 3.763-8.54 8.404 0 4.642 3.824 8.404 8.54 8.404 4.717 0 8.54-3.762 8.54-8.404z"/>
</g></g>
</svg>
