<svg xmlns="http://www.w3.org/2000/svg" width="78" height="78" viewBox="0 0 78 78"><g><g><path d="M55.944 30.465a1.217 1.217 0 0 1-2.238.953 13.467 13.467 0 0 0-1.23-2.258 13.647 13.647 0 0 0-1.641-1.99l-.003.002a13.317 13.317 0 0 0-1.992-1.643 13.279 13.279 0 0 0-2.249-1.23 1.214 1.214 0 0 1 .943-2.236 15.842 15.842 0 0 1 5.026 3.384l-.003.003.003.003a15.792 15.792 0 0 1 3.384 5.012zm7.747.163a1.218 1.218 0 1 1-2.355.627 20.572 20.572 0 0 0-2.066-4.952 20.922 20.922 0 0 0-3.293-4.273 20.838 20.838 0 0 0-4.276-3.294 20.394 20.394 0 0 0-4.955-2.061 1.219 1.219 0 1 1 .628-2.355 23.12 23.12 0 0 1 5.544 2.31 23.204 23.204 0 0 1 8.458 8.456 22.981 22.981 0 0 1 2.315 5.542zm7.495.08a1.217 1.217 0 1 1-2.39.465 27.671 27.671 0 0 0-2.762-7.69L66 23.418a28.132 28.132 0 0 0-4.874-6.534l-.005-.005a28.157 28.157 0 0 0-6.598-4.9 27.873 27.873 0 0 0-7.699-2.76 1.218 1.218 0 0 1 .465-2.39 30.32 30.32 0 0 1 8.377 3.006 30.672 30.672 0 0 1 7.173 5.325l.005.005a30.688 30.688 0 0 1 5.29 7.097l.038.069a30.066 30.066 0 0 1 3.013 8.377zm6.32 33.044a1.216 1.216 0 0 1-1.439 1.96l-19.01-13.925-1.232 1.232-1.97 1.968c-4.685 4.682-11.712 3.575-18.181-.36-2.427-1.476-4.777-3.35-6.878-5.45-2.099-2.1-3.976-4.449-5.453-6.874-3.943-6.467-5.063-13.488-.406-18.14l3.237-3.235L13.079 3.067 9.505 6.612l3.032 4.138 3.639 4.96 3.638 4.961a1.216 1.216 0 0 1-1.961 1.437l-3.636-4.964-3.638-4.96-2.82-3.84-.593.588.003.003-.051.05c-4.642 4.64-5.86 10.792-3.48 18.258 2.469 7.752 8.752 16.899 19.017 27.234l.414.416.002-.002c.702.7 1.279 1.272 1.728 1.706 9.968 9.66 18.827 15.575 26.343 17.874 7.239 2.214 13.215 1.016 17.7-3.469l.06-.058.145-.145.593-.612-3.838-2.808-4.964-3.636-4.965-3.637a1.216 1.216 0 0 1 1.438-1.96l4.965 3.636 4.964 3.636 4.965 3.634a1.216 1.216 0 0 1 .109 1.87l-1.524 1.573-.005.005-.15.15-.069.076c-5.165 5.165-11.962 6.567-20.13 4.068-7.89-2.412-17.085-8.524-27.334-18.455a153.968 153.968 0 0 1-1.756-1.724l.003-.003-.003-.002-.416-.42C10.388 45.576 3.909 36.097 1.32 27.977-1.358 19.569.065 12.587 5.393 7.26l.05-.05.003.002.003-.002L12.365.35a1.217 1.217 0 0 1 1.837.144L28.699 20.26a1.22 1.22 0 0 1-.06 1.656l-3.977 3.973c-3.704 3.703-2.622 9.604.76 15.15 1.367 2.244 3.12 4.436 5.102 6.416 1.981 1.981 4.174 3.733 6.418 5.097 5.549 3.377 11.456 4.443 15.188.713l3.939-3.936.002.003a1.22 1.22 0 0 1 1.578-.122z"/><path class='box-img-color' d="M55.944 30.465a1.217 1.217 0 0 1-2.238.953 13.467 13.467 0 0 0-1.23-2.258 13.647 13.647 0 0 0-1.641-1.99l-.003.002a13.317 13.317 0 0 0-1.992-1.643 13.279 13.279 0 0 0-2.249-1.23 1.214 1.214 0 0 1 .943-2.236 15.842 15.842 0 0 1 5.026 3.384l-.003.003.003.003a15.792 15.792 0 0 1 3.384 5.012zm7.747.163a1.218 1.218 0 1 1-2.355.627 20.572 20.572 0 0 0-2.066-4.952 20.922 20.922 0 0 0-3.293-4.273 20.838 20.838 0 0 0-4.276-3.294 20.394 20.394 0 0 0-4.955-2.061 1.219 1.219 0 1 1 .628-2.355 23.12 23.12 0 0 1 5.544 2.31 23.204 23.204 0 0 1 8.458 8.456 22.981 22.981 0 0 1 2.315 5.542zm7.495.08a1.217 1.217 0 1 1-2.39.465 27.671 27.671 0 0 0-2.762-7.69L66 23.418a28.132 28.132 0 0 0-4.874-6.534l-.005-.005a28.157 28.157 0 0 0-6.598-4.9 27.873 27.873 0 0 0-7.699-2.76 1.218 1.218 0 0 1 .465-2.39 30.32 30.32 0 0 1 8.377 3.006 30.672 30.672 0 0 1 7.173 5.325l.005.005a30.688 30.688 0 0 1 5.29 7.097l.038.069a30.066 30.066 0 0 1 3.013 8.377zm6.32 33.044a1.216 1.216 0 0 1-1.439 1.96l-19.01-13.925-1.232 1.232-1.97 1.968c-4.685 4.682-11.712 3.575-18.181-.36-2.427-1.476-4.777-3.35-6.878-5.45-2.099-2.1-3.976-4.449-5.453-6.874-3.943-6.467-5.063-13.488-.406-18.14l3.237-3.235L13.079 3.067 9.505 6.612l3.032 4.138 3.639 4.96 3.638 4.961a1.216 1.216 0 0 1-1.961 1.437l-3.636-4.964-3.638-4.96-2.82-3.84-.593.588.003.003-.051.05c-4.642 4.64-5.86 10.792-3.48 18.258 2.469 7.752 8.752 16.899 19.017 27.234l.414.416.002-.002c.702.7 1.279 1.272 1.728 1.706 9.968 9.66 18.827 15.575 26.343 17.874 7.239 2.214 13.215 1.016 17.7-3.469l.06-.058.145-.145.593-.612-3.838-2.808-4.964-3.636-4.965-3.637a1.216 1.216 0 0 1 1.438-1.96l4.965 3.636 4.964 3.636 4.965 3.634a1.216 1.216 0 0 1 .109 1.87l-1.524 1.573-.005.005-.15.15-.069.076c-5.165 5.165-11.962 6.567-20.13 4.068-7.89-2.412-17.085-8.524-27.334-18.455a153.968 153.968 0 0 1-1.756-1.724l.003-.003-.003-.002-.416-.42C10.388 45.576 3.909 36.097 1.32 27.977-1.358 19.569.065 12.587 5.393 7.26l.05-.05.003.002.003-.002L12.365.35a1.217 1.217 0 0 1 1.837.144L28.699 20.26a1.22 1.22 0 0 1-.06 1.656l-3.977 3.973c-3.704 3.703-2.622 9.604.76 15.15 1.367 2.244 3.12 4.436 5.102 6.416 1.981 1.981 4.174 3.733 6.418 5.097 5.549 3.377 11.456 4.443 15.188.713l3.939-3.936.002.003a1.22 1.22 0 0 1 1.578-.122z"/></g></g></svg>