<svg xmlns="http://www.w3.org/2000/svg" width="87" height="71" viewBox="0 0 87 71"><g><g><path d="M86.993 1.494l-.007.069v.008l-9.393 61.53a1.365 1.365 0 0 1-1.344 1.157c-.163 0-.326-.03-.482-.088L43.299 51.792l-3.43 9.405 4.316-5.858a1.355 1.355 0 0 1 1.901-.285 1.37 1.37 0 0 1 .284 1.91l-9.933 13.482c-.002.004-.006.007-.009.01l-.01.017-.01.01a1.409 1.409 0 0 1-.118.13l-.03.028c-.012.012-.025.025-.039.036l-.037.03-.066.049-.014.01-.05.031c-.025.015-.05.03-.077.044-.013.006-.025.015-.037.02l-.007.003-.012.005-.078.033-.06.023c-.007.003-.013.006-.02.007l-.006.003-.042.01a1.334 1.334 0 0 1-.127.03l-.036.008-.025.002a1.324 1.324 0 0 1-.167.013l-.016.002a1.35 1.35 0 0 1-.195-.016l-.017-.001-.008-.002a1.369 1.369 0 0 1-.216-.056l-.031-.01a1.558 1.558 0 0 1-.14-.06l-.007-.004-.023-.013a1.295 1.295 0 0 1-.137-.084l-.026-.018-.008-.005-.005-.004c-.028-.02-.054-.044-.08-.066l-.026-.022-.025-.024-.023-.024-.015-.016c-.011-.011-.023-.022-.033-.034l-.04-.048-.032-.04-.007-.009-.006-.008-.012-.019a1.344 1.344 0 0 1-.084-.139l-.017-.031a1.398 1.398 0 0 1-.069-.16l-.006-.022-.005-.01L26 45.115.872 35.408a1.366 1.366 0 1 1-.003-2.548L85.151.09l.008-.002a.574.574 0 0 1 .033-.012c.023-.009.045-.015.068-.022a1.04 1.04 0 0 1 .064-.018l.068-.013.054-.01a.519.519 0 0 1 .04-.005l.036-.003c.019-.001.037-.004.055-.004H85.65c.01 0 .021-.002.032-.001h.027l.06.006a.96.96 0 0 1 .071.008c.004 0 .008 0 .012.002.014.001.028.005.042.008l.076.016.036.01a.366.366 0 0 1 .033.01c.019.006.038.01.057.018l.052.02a.827.827 0 0 1 .026.01c.006.004.011.005.017.007l.025.012.06.032.056.029c.024.015.048.03.072.048.013.008.026.016.039.026l.038.03.012.008.016.016a.207.207 0 0 1 .012.009c.008.007.017.012.025.02l.003.003c.02.018.038.037.057.056l.026.027.017.017c.012.013.023.028.034.042.019.023.038.044.054.067l.003.004h.001l.018.028.054.084.014.025.016.031c.01.02.022.04.032.062l.023.058c.005.01.01.02.013.03.004.011.009.022.012.034.009.023.015.046.022.07l.015.051.002.008c.006.024.01.049.014.073l.01.053.005.036.002.032.001.007L87 1.3v.132l-.006.062zM5.136 34.13l22.44 8.67.006.002c.369.143.672.445.804.852l7.037 21.796 5.767-15.813c.01-.033.019-.065.031-.097.072-.19.182-.353.316-.486L76.251 9.902 39.16 36.96a1.355 1.355 0 0 1-1.899-.303 1.37 1.37 0 0 1 .301-1.907L76.39 6.426zM83.602 5.718L44.824 49.453 75.16 61.018zm-53.18 35.929a1.369 1.369 0 0 1 .3-1.907l2.643-1.928a1.355 1.355 0 0 1 1.898.303c.441.61.307 1.464-.3 1.906L32.32 41.95a1.355 1.355 0 0 1-1.899-.303z"/><path class='box-img-color' d="M86.993 1.494l-.007.069v.008l-9.393 61.53a1.365 1.365 0 0 1-1.344 1.157c-.163 0-.326-.03-.482-.088L43.299 51.792l-3.43 9.405 4.316-5.858a1.355 1.355 0 0 1 1.901-.285 1.37 1.37 0 0 1 .284 1.91l-9.933 13.482c-.002.004-.006.007-.009.01l-.01.017-.01.01a1.409 1.409 0 0 1-.118.13l-.03.028c-.012.012-.025.025-.039.036l-.037.03-.066.049-.014.01-.05.031c-.025.015-.05.03-.077.044-.013.006-.025.015-.037.02l-.007.003-.012.005-.078.033-.06.023c-.007.003-.013.006-.02.007l-.006.003-.042.01a1.334 1.334 0 0 1-.127.03l-.036.008-.025.002a1.324 1.324 0 0 1-.167.013l-.016.002a1.35 1.35 0 0 1-.195-.016l-.017-.001-.008-.002a1.369 1.369 0 0 1-.216-.056l-.031-.01a1.558 1.558 0 0 1-.14-.06l-.007-.004-.023-.013a1.295 1.295 0 0 1-.137-.084l-.026-.018-.008-.005-.005-.004c-.028-.02-.054-.044-.08-.066l-.026-.022-.025-.024-.023-.024-.015-.016c-.011-.011-.023-.022-.033-.034l-.04-.048-.032-.04-.007-.009-.006-.008-.012-.019a1.344 1.344 0 0 1-.084-.139l-.017-.031a1.398 1.398 0 0 1-.069-.16l-.006-.022-.005-.01L26 45.115.872 35.408a1.366 1.366 0 1 1-.003-2.548L85.151.09l.008-.002a.574.574 0 0 1 .033-.012c.023-.009.045-.015.068-.022a1.04 1.04 0 0 1 .064-.018l.068-.013.054-.01a.519.519 0 0 1 .04-.005l.036-.003c.019-.001.037-.004.055-.004H85.65c.01 0 .021-.002.032-.001h.027l.06.006a.96.96 0 0 1 .071.008c.004 0 .008 0 .012.002.014.001.028.005.042.008l.076.016.036.01a.366.366 0 0 1 .033.01c.019.006.038.01.057.018l.052.02a.827.827 0 0 1 .026.01c.006.004.011.005.017.007l.025.012.06.032.056.029c.024.015.048.03.072.048.013.008.026.016.039.026l.038.03.012.008.016.016a.207.207 0 0 1 .012.009c.008.007.017.012.025.02l.003.003c.02.018.038.037.057.056l.026.027.017.017c.012.013.023.028.034.042.019.023.038.044.054.067l.003.004h.001l.018.028.054.084.014.025.016.031c.01.02.022.04.032.062l.023.058c.005.01.01.02.013.03.004.011.009.022.012.034.009.023.015.046.022.07l.015.051.002.008c.006.024.01.049.014.073l.01.053.005.036.002.032.001.007L87 1.3v.132l-.006.062zM5.136 34.13l22.44 8.67.006.002c.369.143.672.445.804.852l7.037 21.796 5.767-15.813c.01-.033.019-.065.031-.097.072-.19.182-.353.316-.486L76.251 9.902 39.16 36.96a1.355 1.355 0 0 1-1.899-.303 1.37 1.37 0 0 1 .301-1.907L76.39 6.426zM83.602 5.718L44.824 49.453 75.16 61.018zm-53.18 35.929a1.369 1.369 0 0 1 .3-1.907l2.643-1.928a1.355 1.355 0 0 1 1.898.303c.441.61.307 1.464-.3 1.906L32.32 41.95a1.355 1.355 0 0 1-1.899-.303z"/></g></g></svg>