<svg xmlns="http://www.w3.org/2000/svg" width="36" height="67" viewBox="0 0 36 67"><g><g><path d="M12.82 22.967a5.863 5.863 0 0 1-.911-3.131c0-3.3 2.743-5.982 6.117-5.982 3.373 0 6.116 2.683 6.116 5.982 0 .993-.254 1.978-.738 2.847-1.071 1.931-3.135 3.132-5.378 3.132-2.135 0-4.082-1.065-5.206-2.848zm.512-3.131c0 .845.242 1.674.7 2.4a4.685 4.685 0 0 0 3.994 2.189c1.723 0 3.305-.92 4.127-2.404a4.505 4.505 0 0 0 .566-2.185c0-2.531-2.105-4.59-4.693-4.59-2.59 0-4.695 2.059-4.693 4.59zM.123 38.579a27.87 27.87 0 0 1 3.088-3.589 34.353 34.353 0 0 1-.732-7.03C2.48 16.463 8.291 5.786 17.647.094a.727.727 0 0 1 .753 0c9.353 5.691 15.165 16.37 15.165 27.866 0 2.421-.262 4.857-.78 7.246a27.77 27.77 0 0 1 3.088 3.588.681.681 0 0 1 .103.605l-5.277 17.01a.71.71 0 0 1-.681.493.727.727 0 0 1-.548-.25c-1.496-1.76-3.577-3.143-5.935-3.949v.84a.703.703 0 0 1-.712.696h-9.65a.703.703 0 0 1-.71-.696v-1.057c-2.357.806-4.439 2.188-5.934 3.948a.727.727 0 0 1-.689.238.699.699 0 0 1-.54-.479L.023 39.183a.685.685 0 0 1 .1-.604zm1.362.525l4.813 15.512c1.789-1.738 4.119-3.053 6.683-3.75a.725.725 0 0 1 .621.115.693.693 0 0 1 .282.555v1.306h8.225v-1.09a.69.69 0 0 1 .281-.554.717.717 0 0 1 .43-.14c.065 0 .13.008.193.024 2.565.7 4.895 2.012 6.684 3.752l4.814-15.515a25.979 25.979 0 0 0-2.985-3.377.7.7 0 0 1-.192-.308.801.801 0 0 1-.017-.371 33.03 33.03 0 0 0 .826-7.305c0-10.865-5.4-20.959-14.122-26.452C9.301 7 3.902 17.093 3.902 27.958c0 2.38.263 4.776.782 7.114a.688.688 0 0 1-.202.65 26.31 26.31 0 0 0-2.997 3.382zm26.99-14.934a.7.7 0 0 1 .654-.749.696.696 0 0 1 .765.638c.035.42.792 10.47-4.533 22.048a.713.713 0 0 1-.94.349.688.688 0 0 1-.358-.92c5.178-11.256 4.42-21.268 4.412-21.366zM13.641 55.846c.394 0 .712.312.712.696v5.524a.703.703 0 0 1-.712.696.703.703 0 0 1-.711-.696v-5.524c0-.384.317-.696.711-.696zm4.359 0c.393 0 .711.312.711.696v9.765a.703.703 0 0 1-.711.696.703.703 0 0 1-.712-.696v-9.765c0-.384.318-.696.712-.696zm4.879.696v5.524a.702.702 0 0 1-.712.696.703.703 0 0 1-.711-.696v-5.524c0-.384.318-.696.711-.696.395 0 .712.312.712.696z"/><path fill="#252525" d="M12.82 22.967a5.863 5.863 0 0 1-.911-3.131c0-3.3 2.743-5.982 6.117-5.982 3.373 0 6.116 2.683 6.116 5.982 0 .993-.254 1.978-.738 2.847-1.071 1.931-3.135 3.132-5.378 3.132-2.135 0-4.082-1.065-5.206-2.848zm.512-3.131c0 .845.242 1.674.7 2.4a4.685 4.685 0 0 0 3.994 2.189c1.723 0 3.305-.92 4.127-2.404a4.505 4.505 0 0 0 .566-2.185c0-2.531-2.105-4.59-4.693-4.59-2.59 0-4.695 2.059-4.693 4.59zM.123 38.579a27.87 27.87 0 0 1 3.088-3.589 34.353 34.353 0 0 1-.732-7.03C2.48 16.463 8.291 5.786 17.647.094a.727.727 0 0 1 .753 0c9.353 5.691 15.165 16.37 15.165 27.866 0 2.421-.262 4.857-.78 7.246a27.77 27.77 0 0 1 3.088 3.588.681.681 0 0 1 .103.605l-5.277 17.01a.71.71 0 0 1-.681.493.727.727 0 0 1-.548-.25c-1.496-1.76-3.577-3.143-5.935-3.949v.84a.703.703 0 0 1-.712.696h-9.65a.703.703 0 0 1-.71-.696v-1.057c-2.357.806-4.439 2.188-5.934 3.948a.727.727 0 0 1-.689.238.699.699 0 0 1-.54-.479L.023 39.183a.685.685 0 0 1 .1-.604zm1.362.525l4.813 15.512c1.789-1.738 4.119-3.053 6.683-3.75a.725.725 0 0 1 .621.115.693.693 0 0 1 .282.555v1.306h8.225v-1.09a.69.69 0 0 1 .281-.554.717.717 0 0 1 .43-.14c.065 0 .13.008.193.024 2.565.7 4.895 2.012 6.684 3.752l4.814-15.515a25.979 25.979 0 0 0-2.985-3.377.7.7 0 0 1-.192-.308.801.801 0 0 1-.017-.371 33.03 33.03 0 0 0 .826-7.305c0-10.865-5.4-20.959-14.122-26.452C9.301 7 3.902 17.093 3.902 27.958c0 2.38.263 4.776.782 7.114a.688.688 0 0 1-.202.65 26.31 26.31 0 0 0-2.997 3.382zm26.99-14.934a.7.7 0 0 1 .654-.749.696.696 0 0 1 .765.638c.035.42.792 10.47-4.533 22.048a.713.713 0 0 1-.94.349.688.688 0 0 1-.358-.92c5.178-11.256 4.42-21.268 4.412-21.366zM13.641 55.846c.394 0 .712.312.712.696v5.524a.703.703 0 0 1-.712.696.703.703 0 0 1-.711-.696v-5.524c0-.384.317-.696.711-.696zm4.359 0c.393 0 .711.312.711.696v9.765a.703.703 0 0 1-.711.696.703.703 0 0 1-.712-.696v-9.765c0-.384.318-.696.712-.696zm4.879.696v5.524a.702.702 0 0 1-.712.696.703.703 0 0 1-.711-.696v-5.524c0-.384.318-.696.711-.696.395 0 .712.312.712.696z"/></g></g></svg>